<?xml version="1.0" encoding="UTF-8"?>
<!DOCTYPE svg PUBLIC "-//W3C//DTD SVG 1.1//EN" "http://www.w3.org/Graphics/SVG/1.1/DTD/svg11.dtd">
<svg xmlns="http://www.w3.org/2000/svg" version="1.1" width="353px" height="100px" style="shape-rendering:geometricPrecision; text-rendering:geometricPrecision; image-rendering:optimizeQuality; fill-rule:evenodd; clip-rule:evenodd" xmlns:xlink="http://www.w3.org/1999/xlink">
<g><path style="opacity:0.537" fill="#7aa0d4" d="M -0.5,0.5 C -0.5,0.166667 -0.5,-0.166667 -0.5,-0.5C 52.5,-0.5 105.5,-0.5 158.5,-0.5C 158.5,1.16667 158.5,2.83333 158.5,4.5C 105.5,4.5 52.5,4.5 -0.5,4.5C -0.5,4.16667 -0.5,3.83333 -0.5,3.5C 52.1667,3.5 104.833,3.5 157.5,3.5C 157.5,2.5 157.5,1.5 157.5,0.5C 104.833,0.5 52.1667,0.5 -0.5,0.5 Z"/></g>
<g><path style="opacity:1" fill="#0049ad" d="M -0.5,0.5 C 52.1667,0.5 104.833,0.5 157.5,0.5C 157.5,1.5 157.5,2.5 157.5,3.5C 104.833,3.5 52.1667,3.5 -0.5,3.5C -0.5,2.5 -0.5,1.5 -0.5,0.5 Z"/></g>
<g><path style="opacity:0.652" fill="#aba7b5" d="M 53.5,19.5 C 35.8333,19.5 18.1667,19.5 0.5,19.5C 0.5,39.5 0.5,59.5 0.5,79.5C 0.166667,79.5 -0.166667,79.5 -0.5,79.5C -0.5,59.1667 -0.5,38.8333 -0.5,18.5C 12.4408,18.6292 25.4408,18.2958 38.5,17.5C 43.6555,18.0682 48.6555,18.7348 53.5,19.5 Z"/></g>
<g><path style="opacity:0.654" fill="#a5a2ae" d="M 133.5,19.5 C 115.833,19.5 98.1667,19.5 80.5,19.5C 82.8952,18.2342 85.5619,17.5676 88.5,17.5C 103.141,18.0801 117.807,18.0801 132.5,17.5C 133.298,17.9569 133.631,18.6236 133.5,19.5 Z"/></g>
<g><path style="opacity:0.652" fill="#858191" d="M 270.5,19.5 C 252.833,19.5 235.167,19.5 217.5,19.5C 217.369,18.7611 217.536,18.0944 218,17.5C 235.598,18.1603 253.098,18.827 270.5,19.5 Z"/></g>
<g><path style="opacity:0.652" fill="#9f9ca9" d="M 350.5,18.5 C 350.5,18.8333 350.5,19.1667 350.5,19.5C 330.5,19.5 310.5,19.5 290.5,19.5C 290.5,23.1667 290.5,26.8333 290.5,30.5C 298.684,30.1743 306.684,30.5076 314.5,31.5C 314.167,31.5 313.833,31.5 313.5,31.5C 305.5,31.5 297.5,31.5 289.5,31.5C 289.2,26.9014 289.533,22.4014 290.5,18C 310.74,17.5897 330.74,17.7564 350.5,18.5 Z"/></g>
<g><path style="opacity:0.999" fill="#4b445c" d="M 53.5,19.5 C 60.4544,23.1374 63.121,28.9707 61.5,37C 63.121,45.0293 60.4544,50.8626 53.5,54.5C 48.1254,54.1718 42.7921,54.5052 37.5,55.5C 37.6236,56.1067 37.9569,56.44 38.5,56.5C 42.1667,59.5 45.5,62.8333 48.5,66.5C 52.2984,67.4834 56.2984,67.8168 60.5,67.5C 60.5,71.5 60.5,75.5 60.5,79.5C 54.5953,80.8784 48.5953,80.7117 42.5,79C 34.9642,71.6316 27.6308,64.1316 20.5,56.5C 19.5081,54.9735 18.0081,54.3068 16,54.5C 14.3189,54.6083 13.1522,55.2749 12.5,56.5C 12.4167,63.6474 12.7501,70.8141 13.5,78C 13.0426,78.414 12.7093,78.914 12.5,79.5C 8.35069,80.8095 4.35069,80.8095 0.5,79.5C 0.5,59.5 0.5,39.5 0.5,19.5C 18.1667,19.5 35.8333,19.5 53.5,19.5 Z M 12.5,33.5 C 12.5,33.1667 12.5,32.8333 12.5,32.5C 23.7572,31.3568 35.0905,31.1901 46.5,32C 48.768,35.0709 49.1014,38.4042 47.5,42C 36.1716,42.4999 24.8382,42.6665 13.5,42.5C 13.81,39.2869 13.4767,36.2869 12.5,33.5 Z"/></g>
<g><path style="opacity:0.999" fill="#4d465d" d="M 80.5,19.5 C 98.1667,19.5 115.833,19.5 133.5,19.5C 134.833,23.1667 134.833,26.8333 133.5,30.5C 117.167,30.5 100.833,30.5 84.5,30.5C 84.5,34.8333 84.5,39.1667 84.5,43.5C 100.833,43.5 117.167,43.5 133.5,43.5C 134.833,47.1667 134.833,50.8333 133.5,54.5C 117.167,54.5 100.833,54.5 84.5,54.5C 84.5,58.8333 84.5,63.1667 84.5,67.5C 100.833,67.5 117.167,67.5 133.5,67.5C 134.796,71.3685 134.796,75.3685 133.5,79.5C 116.51,80.6663 99.5098,80.8329 82.5,80C 81.2625,79.7679 80.2625,79.2679 79.5,78.5C 79.0269,77.0937 78.0269,76.427 76.5,76.5C 74.39,75.5475 73.2233,73.8808 73,71.5C 72.3333,56.5 72.3333,41.5 73,26.5C 73.2784,25.5842 73.7784,24.9175 74.5,24.5C 76.1667,23.5 77.5,22.1667 78.5,20.5C 78.8417,19.6618 79.5084,19.3284 80.5,19.5 Z"/></g>
<g><path style="opacity:1" fill="#2652b1" d="M 192.5,56.5 C 192.369,57.3764 192.702,58.0431 193.5,58.5C 194.499,45.5171 194.832,32.5171 194.5,19.5C 198.167,19.5 201.833,19.5 205.5,19.5C 205.5,38.5 205.5,57.5 205.5,76.5C 205.167,77.5 204.5,78.1667 203.5,78.5C 201.167,78.5 198.833,78.5 196.5,78.5C 184.369,65.8682 172.035,53.3682 159.5,41C 158.563,40.3083 157.897,40.475 157.5,41.5C 157.5,42.1667 157.833,42.5 158.5,42.5C 158.667,54.8378 158.5,67.1712 158,79.5C 153.667,80.8333 149.333,80.8333 145,79.5C 144.171,60.3289 144.338,41.3289 145.5,22.5C 146.833,21.8333 147.833,20.8333 148.5,19.5C 150.288,18.3775 152.288,18.2109 154.5,19C 167.035,31.702 179.702,44.202 192.5,56.5 Z"/></g>
<g><path style="opacity:0.999" fill="#4f485f" d="M 217.5,19.5 C 235.167,19.5 252.833,19.5 270.5,19.5C 270.833,19.5 271.167,19.5 271.5,19.5C 272.785,21.4516 274.451,23.1182 276.5,24.5C 277.222,24.9175 277.722,25.5842 278,26.5C 278.667,41.5 278.667,56.5 278,71.5C 276.283,76.5513 272.783,79.3846 267.5,80C 250.833,80.6667 234.167,80.6667 217.5,80C 216.283,59.6729 216.283,39.5062 217.5,19.5 Z M 230.5,31.5 C 242.167,31.5 253.833,31.5 265.5,31.5C 265.5,43.1667 265.5,54.8333 265.5,66.5C 253.829,66.6665 242.162,66.4999 230.5,66C 231.167,65.6667 231.833,65.3333 232.5,65C 230.536,54.0884 229.869,42.9217 230.5,31.5 Z"/></g>
<g><path style="opacity:0.998" fill="#4c455d" d="M 350.5,19.5 C 350.5,23.1667 350.5,26.8333 350.5,30.5C 342.097,29.8665 334.097,30.5332 326.5,32.5C 327.659,43.8438 327.659,55.1772 326.5,66.5C 334.316,67.4924 342.316,67.8257 350.5,67.5C 350.5,71.5 350.5,75.5 350.5,79.5C 330.5,80.8333 310.5,80.8333 290.5,79.5C 290.5,75.5 290.5,71.5 290.5,67.5C 298.5,67.5 306.5,67.5 314.5,67.5C 314.5,55.5 314.5,43.5 314.5,31.5C 306.684,30.5076 298.684,30.1743 290.5,30.5C 290.5,26.8333 290.5,23.1667 290.5,19.5C 310.5,19.5 330.5,19.5 350.5,19.5 Z"/></g>
<g><path style="opacity:0.949" fill="#a9a6b2" d="M 271.5,19.5 C 274.189,20.1894 275.856,21.856 276.5,24.5C 274.451,23.1182 272.785,21.4516 271.5,19.5 Z"/></g>
<g><path style="opacity:0.612" fill="#abadb8" d="M 78.5,20.5 C 77.5,22.1667 76.1667,23.5 74.5,24.5C 74.8333,22.1667 76.1667,20.8333 78.5,20.5 Z"/></g>
<g><path style="opacity:0.38" fill="#a8c0e3" d="M 148.5,19.5 C 147.833,20.8333 146.833,21.8333 145.5,22.5C 145.5,20.5 146.5,19.5 148.5,19.5 Z"/></g>
<g><path style="opacity:0.715" fill="#80a1d5" d="M 205.5,76.5 C 205.5,57.5 205.5,38.5 205.5,19.5C 201.833,19.5 198.167,19.5 194.5,19.5C 194.832,32.5171 194.499,45.5171 193.5,58.5C 192.702,58.0431 192.369,57.3764 192.5,56.5C 193.826,44.4139 193.826,32.2472 192.5,20C 193.009,18.8315 193.842,17.9981 195,17.5C 198.614,17.36 202.281,17.6933 206,18.5C 206.829,38.0044 206.662,57.3377 205.5,76.5 Z"/></g>
<g><path style="opacity:0.45" fill="#aaa8b5" d="M 12.5,33.5 C 13.4767,36.2869 13.81,39.2869 13.5,42.5C 24.8382,42.6665 36.1716,42.4999 47.5,42C 49.1014,38.4042 48.768,35.0709 46.5,32C 35.0905,31.1901 23.7572,31.3568 12.5,32.5C 24.4547,30.5203 36.788,29.8536 49.5,30.5C 49.5,34.8333 49.5,39.1667 49.5,43.5C 37.1667,43.5 24.8333,43.5 12.5,43.5C 12.5,40.1667 12.5,36.8333 12.5,33.5 Z"/></g>
<g><path style="opacity:0.442" fill="#b4b2be" d="M 350.5,18.5 C 351.485,22.6344 351.818,26.9677 351.5,31.5C 343.082,31.1981 334.748,31.5314 326.5,32.5C 334.097,30.5332 342.097,29.8665 350.5,30.5C 350.5,26.8333 350.5,23.1667 350.5,19.5C 350.5,19.1667 350.5,18.8333 350.5,18.5 Z"/></g>
<g><path style="opacity:0.408" fill="#a9a6b3" d="M 229.5,31.5 C 241.655,30.5048 253.989,30.1714 266.5,30.5C 266.829,43.0113 266.495,55.3446 265.5,67.5C 265.5,67.1667 265.5,66.8333 265.5,66.5C 265.5,54.8333 265.5,43.1667 265.5,31.5C 253.833,31.5 242.167,31.5 230.5,31.5C 230.167,31.5 229.833,31.5 229.5,31.5 Z"/></g>
<g><path style="opacity:0.631" fill="#b2c3e5" d="M 157.5,41.5 C 157.897,40.475 158.563,40.3083 159.5,41C 172.035,53.3682 184.369,65.8682 196.5,78.5C 195.761,78.631 195.094,78.4643 194.5,78C 182.632,65.9647 170.632,54.1313 158.5,42.5C 157.833,42.5 157.5,42.1667 157.5,41.5 Z"/></g>
<g><path style="opacity:0.403" fill="#aca8b6" d="M 133.5,30.5 C 117.675,31.4964 101.675,31.8297 85.5,31.5C 85.5,35.1667 85.5,38.8333 85.5,42.5C 101.675,42.1703 117.675,42.5036 133.5,43.5C 117.167,43.5 100.833,43.5 84.5,43.5C 84.5,39.1667 84.5,34.8333 84.5,30.5C 100.833,30.5 117.167,30.5 133.5,30.5 Z"/></g>
<g><path style="opacity:0.713" fill="#a29eab" d="M 20.5,56.5 C 17.538,55.4484 14.8714,55.4484 12.5,56.5C 13.1522,55.2749 14.3189,54.6083 16,54.5C 18.0081,54.3068 19.5081,54.9735 20.5,56.5 Z"/></g>
<g><path style="opacity:0.72" fill="#8a8696" d="M 53.5,54.5 C 52.4324,55.4345 51.099,55.7678 49.5,55.5C 46.5,55.5 43.5,55.5 40.5,55.5C 39.5084,55.3284 38.8417,55.6618 38.5,56.5C 37.9569,56.44 37.6236,56.1067 37.5,55.5C 42.7921,54.5052 48.1254,54.1718 53.5,54.5 Z"/></g>
<g><path style="opacity:0.726" fill="#b1aeba" d="M 133.5,54.5 C 133.53,55.4972 133.03,56.1639 132,56.5C 116.607,56.4407 101.107,56.4407 85.5,56.5C 85.5,59.8333 85.5,63.1667 85.5,66.5C 101.675,66.1703 117.675,66.5036 133.5,67.5C 117.167,67.5 100.833,67.5 84.5,67.5C 84.5,63.1667 84.5,58.8333 84.5,54.5C 100.833,54.5 117.167,54.5 133.5,54.5 Z"/></g>
<g><path style="opacity:0.004" fill="#fefffe" d="M 40.5,55.5 C 43.5,55.5 46.5,55.5 49.5,55.5C 47.1073,56.21 44.6073,56.8767 42,57.5C 41.2828,56.9558 40.7828,56.2891 40.5,55.5 Z"/></g>
<g><path style="opacity:0.007" fill="#fefffe" d="M 327.5,63.5 C 328.289,63.7828 328.956,64.2828 329.5,65C 328.184,65.5281 327.517,65.0281 327.5,63.5 Z"/></g>
<g><path style="opacity:0.139" fill="#dad9e2" d="M 229.5,31.5 C 229.833,31.5 230.167,31.5 230.5,31.5C 229.869,42.9217 230.536,54.0884 232.5,65C 231.833,65.3333 231.167,65.6667 230.5,66C 242.162,66.4999 253.829,66.6665 265.5,66.5C 265.5,66.8333 265.5,67.1667 265.5,67.5C 253.5,67.5 241.5,67.5 229.5,67.5C 229.5,55.5 229.5,43.5 229.5,31.5 Z"/></g>
<g><path style="opacity:0.139" fill="#ceced7" d="M 313.5,31.5 C 313.833,31.5 314.167,31.5 314.5,31.5C 314.5,43.5 314.5,55.5 314.5,67.5C 306.5,67.5 298.5,67.5 290.5,67.5C 290.5,71.5 290.5,75.5 290.5,79.5C 289.515,75.3656 289.182,71.0323 289.5,66.5C 297.5,66.5 305.5,66.5 313.5,66.5C 313.5,54.8333 313.5,43.1667 313.5,31.5 Z"/></g>
<g><path style="opacity:0.141" fill="#dadae2" d="M 326.5,66.5 C 334.833,66.5 343.167,66.5 351.5,66.5C 351.818,71.0323 351.485,75.3656 350.5,79.5C 350.5,75.5 350.5,71.5 350.5,67.5C 342.316,67.8257 334.316,67.4924 326.5,66.5 Z"/></g>
<g><path style="opacity:0.432" fill="#b8b6c2" d="M 48.5,66.5 C 52.8333,66.5 57.1667,66.5 61.5,66.5C 61.8182,71.0323 61.4849,75.3656 60.5,79.5C 60.5,75.5 60.5,71.5 60.5,67.5C 56.2984,67.8168 52.2984,67.4834 48.5,66.5 Z"/></g>
<g><path style="opacity:0.373" fill="#b7b5c0" d="M 76.5,76.5 C 78.0269,76.427 79.0269,77.0937 79.5,78.5C 77.9731,78.573 76.9731,77.9063 76.5,76.5 Z"/></g>
<g><path style="opacity:1" fill="#8b9fd6" d="M 196.5,78.5 C 198.833,78.5 201.167,78.5 203.5,78.5C 201.167,81.1667 198.833,81.1667 196.5,78.5 Z"/></g>
<g><path style="opacity:1" fill="#0049ad" d="M 352.5,95.5 C 352.5,96.5 352.5,97.5 352.5,98.5C 299.5,98.5 246.5,98.5 193.5,98.5C 193.5,97.5 193.5,96.5 193.5,95.5C 246.5,95.5 299.5,95.5 352.5,95.5 Z"/></g>
<g><path style="opacity:0.549" fill="#7aa0d4" d="M 352.5,94.5 C 352.5,94.8333 352.5,95.1667 352.5,95.5C 299.5,95.5 246.5,95.5 193.5,95.5C 193.5,96.5 193.5,97.5 193.5,98.5C 246.5,98.5 299.5,98.5 352.5,98.5C 352.5,98.8333 352.5,99.1667 352.5,99.5C 299.167,99.5 245.833,99.5 192.5,99.5C 192.5,97.8333 192.5,96.1667 192.5,94.5C 245.833,94.5 299.167,94.5 352.5,94.5 Z"/></g>
</svg>
